<svg width="49" height="52" viewBox="0 0 49 52" fill="none" xmlns="http://www.w3.org/2000/svg">
<path opacity="0.2" d="M24.1499 26.2554V50.1515C23.8379 50.1502 23.5313 50.0703 23.2583 49.9193L2.82437 38.7317C2.53259 38.5721 2.28902 38.337 2.11911 38.0511C1.94919 37.7652 1.85915 37.4389 1.8584 37.1063V14.8983C1.85914 14.6382 1.91451 14.3811 2.02094 14.1437L24.1499 26.2554Z" fill="black"/>
<path d="M46.3664 11.6405L25.9325 0.459914C25.3865 0.15824 24.773 0 24.1492 0C23.5254 0 22.9118 0.15824 22.3659 0.459914L1.93193 11.6452C1.34838 11.9645 0.861251 12.4346 0.521417 13.0064C0.181584 13.5782 0.00150992 14.2308 0 14.896V37.104C0.00150992 37.7692 0.181584 38.4217 0.521417 38.9936C0.861251 39.5654 1.34838 40.0355 1.93193 40.3548L22.3659 51.5401C22.9118 51.8417 23.5254 52 24.1492 52C24.773 52 25.3865 51.8417 25.9325 51.5401L46.3664 40.3548C46.95 40.0355 47.4371 39.5654 47.7769 38.9936C48.1168 38.4217 48.2968 37.7692 48.2984 37.104V14.8983C48.2981 14.232 48.1186 13.5779 47.7787 13.0048C47.4388 12.4316 46.951 11.9604 46.3664 11.6405ZM24.1492 3.71076L42.8044 13.9277L35.8917 17.7126L17.2342 7.49568L24.1492 3.71076ZM24.1492 24.1447L5.49394 13.9277L13.3656 9.61802L32.0209 19.835L24.1492 24.1447ZM3.71526 17.1786L22.2915 27.3444V47.2652L3.71526 37.1063V17.1786ZM44.5831 37.097L26.0068 47.2652V27.3537L33.4373 23.2879V31.5752C33.4373 32.0679 33.633 32.5404 33.9814 32.8887C34.3298 33.2371 34.8023 33.4328 35.295 33.4328C35.7876 33.4328 36.2601 33.2371 36.6085 32.8887C36.9569 32.5404 37.1526 32.0679 37.1526 31.5752V21.2537L44.5831 17.1786V37.0947V37.097Z" fill="black"/>
</svg>
