<svg width="24" height="24" viewBox="0 0 24 24" fill="none" xmlns="http://www.w3.org/2000/svg">
<path d="M9 3.25C7.47501 3.25 6.01247 3.8558 4.93414 4.93414C3.8558 6.01247 3.25 7.47501 3.25 9V16.107C3.25 16.3059 3.32902 16.4967 3.46967 16.6373C3.61032 16.778 3.80109 16.857 4 16.857C4.19891 16.857 4.38968 16.778 4.53033 16.6373C4.67098 16.4967 4.75 16.3059 4.75 16.107V9C4.75 7.87283 5.19777 6.79183 5.9948 5.9948C6.79183 5.19777 7.87283 4.75 9 4.75H16.013C16.2119 4.75 16.4027 4.67098 16.5433 4.53033C16.684 4.38968 16.763 4.19891 16.763 4C16.763 3.80109 16.684 3.61032 16.5433 3.46967C16.4027 3.32902 16.2119 3.25 16.013 3.25H9Z" fill="black"/>
<path fill-rule="evenodd" clip-rule="evenodd" d="M18.4034 6.79303C15.1447 6.43097 11.856 6.43097 8.59737 6.79303C8.14644 6.84312 7.72571 7.04429 7.40362 7.36384C7.08153 7.68339 6.87703 8.1025 6.82337 8.55303C6.43908 11.8398 6.43908 15.1602 6.82337 18.447C6.87703 18.8976 7.08153 19.3167 7.40362 19.6362C7.72571 19.9558 8.14644 20.1569 8.59737 20.207C11.8384 20.569 15.1624 20.569 18.4034 20.207C18.8543 20.1569 19.275 19.9558 19.5971 19.6362C19.9192 19.3167 20.1237 18.8976 20.1774 18.447C20.5617 15.1602 20.5617 11.8398 20.1774 8.55303C20.1237 8.1025 19.9192 7.68339 19.5971 7.36384C19.275 7.04429 18.8543 6.84312 18.4034 6.79303ZM8.76437 8.28403C11.8944 7.93403 15.1064 7.93403 18.2364 8.28403C18.3504 8.29665 18.4568 8.34733 18.5385 8.4279C18.6201 8.50846 18.6722 8.6142 18.6864 8.72803C19.0579 11.8985 19.0579 15.1015 18.6864 18.272C18.6722 18.3859 18.6201 18.4916 18.5385 18.5722C18.4568 18.6527 18.3504 18.7034 18.2364 18.716C15.1064 19.066 11.8944 19.066 8.76437 18.716C8.65036 18.7034 8.54393 18.6527 8.46228 18.5722C8.38063 18.4916 8.32852 18.3859 8.31437 18.272C7.94283 15.1015 7.94283 11.8985 8.31437 8.72803C8.32852 8.6142 8.38063 8.50846 8.46228 8.4279C8.54393 8.34733 8.65036 8.29665 8.76437 8.28403Z" fill="black"/>
</svg>
