<svg width="38" height="52" viewBox="0 0 38 52" fill="none" xmlns="http://www.w3.org/2000/svg">
<path d="M37.5905 23.7642C37.5414 23.5541 37.4412 23.3593 37.2989 23.1972C37.1566 23.035 36.9765 22.9104 36.7746 22.8345L23.818 17.976L27.0992 1.56979C27.1552 1.28977 27.1184 0.999142 26.9942 0.741975C26.8701 0.484809 26.6655 0.275139 26.4114 0.14477C26.1574 0.0144009 25.8677 -0.0295555 25.5864 0.0195685C25.3051 0.0686925 25.0475 0.208217 24.8527 0.416978L0.352682 26.667C0.205544 26.8247 0.099559 27.0163 0.0441055 27.2248C-0.0113481 27.4333 -0.0145609 27.6522 0.0347519 27.8622C0.0840648 28.0722 0.184383 28.2668 0.326829 28.4289C0.469275 28.5909 0.649457 28.7153 0.851432 28.791L13.808 33.6495L10.5267 50.0557C10.4704 50.3358 10.507 50.6267 10.631 50.8841C10.7549 51.1415 10.9595 51.3514 11.2136 51.482C11.3994 51.5762 11.6047 51.6257 11.813 51.6264C11.9932 51.6264 12.1714 51.5893 12.3366 51.5174C12.5018 51.4455 12.6505 51.3404 12.7733 51.2085L37.2733 24.9585C37.4202 24.8008 37.5259 24.6093 37.5813 24.401C37.6366 24.1927 37.6398 23.974 37.5905 23.7642ZM14.0005 46.0395L16.5927 33.072C16.6542 32.7665 16.605 32.4491 16.4539 32.1766C16.3028 31.904 16.0597 31.6942 15.768 31.5845L3.60549 27.0235L23.6124 5.58604L21.0267 18.5557C20.9653 18.8612 21.0145 19.1786 21.1655 19.4511C21.3166 19.7237 21.5598 19.9335 21.8514 20.0432L34.0139 24.6042L14.0005 46.0395Z" fill="black"/>
</svg>
