<svg width="47" height="42" viewBox="0 0 47 42" fill="none" xmlns="http://www.w3.org/2000/svg">
<path d="M18.7778 28.7777L25.4444 31C25.4444 31 42.1111 27.6666 44.3333 27.6666C46.5556 27.6666 46.5556 29.8888 44.3333 32.1111C42.1111 34.3333 34.3333 41 27.6667 41C21 41 16.5556 37.6666 12.1111 37.6666H1" stroke="black" stroke-width="2" stroke-linecap="round" stroke-linejoin="round"/>
<path d="M1 24.3333C3.22222 22.1111 7.66667 18.7778 12.1111 18.7778C16.5556 18.7778 27.1111 23.2222 28.7778 25.4444C30.4444 27.6667 25.4444 31 25.4444 31M14.3333 12.1111V3.22222C14.3333 2.63285 14.5675 2.06762 14.9842 1.65087C15.401 1.23413 15.9662 1 16.5556 1H43.2222C43.8116 1 44.3768 1.23413 44.7936 1.65087C45.2103 2.06762 45.4444 2.63285 45.4444 3.22222V21" stroke="black" stroke-width="2" stroke-linecap="round" stroke-linejoin="round"/>
<path d="M24.3335 1H35.4446V11H24.3335V1Z" stroke="black" stroke-width="2" stroke-linecap="round" stroke-linejoin="round"/>
</svg>
