<svg width="48" height="40" viewBox="0 0 48 40" fill="none" xmlns="http://www.w3.org/2000/svg">
<path d="M17.6529 0.0246553C21.6999 -0.0111295 25.747 -0.00838283 29.7939 0.03566C29.5535 2.83788 28.8569 6.36406 28.5226 9.2929C25.1257 9.67828 21.2306 9.18418 17.7225 9.2819C15.4659 9.34521 12.6636 9.26539 12.7262 12.8287C12.8348 15.2814 14.8132 15.174 16.5067 15.1726C21.3203 15.1712 25.7312 19.4585 25.8604 24.6776C26.0554 32.5434 20.2112 38.9585 12.8895 39.37L0 39.359C0.398186 36.7192 0.811465 32.5365 1.37798 30.1279C4.92166 29.9132 8.81065 30.2325 12.3883 30.1334C14.4488 30.077 16.9739 29.7274 16.9343 26.8316C16.8877 23.41 13.7577 24.5166 11.7622 24.1752C9.89466 23.8601 8.16158 22.9448 6.79341 21.5519C4.82957 19.5576 3.93129 17.0857 3.90253 14.2161C3.89956 10.566 5.23665 7.06049 7.62731 4.44958C10.4818 1.35558 13.5875 0.0728271 17.6529 0.0246553Z" fill="#4B4A67"/>
<path d="M34.8312 0.045033C38.8165 0.0876995 43.0689 -0.0870913 47.0239 0.0835745C46.9606 1.548 46.407 4.52364 46.1633 6.09129L44.0067 19.2752C43.5647 21.9632 41.2663 38.6953 40.6108 39.3629C39.0933 39.3284 32.7943 39.4151 31.7954 39.1289C31.7659 37.9232 32.1899 35.6894 32.3954 34.4424C32.7844 32.1206 33.1608 29.7973 33.523 27.4713L35.3077 16.0339C35.6285 13.9694 35.9604 11.2608 36.4479 9.27338C35.4041 9.23071 34.3272 9.2431 33.2792 9.24035C33.4816 7.69059 34.2211 0.888727 34.8312 0.045033Z" fill="#4B4A67"/>
</svg>
