<svg width="34" height="34" viewBox="0 0 34 34" fill="none" xmlns="http://www.w3.org/2000/svg">
<path d="M13.5656 0.020959C16.6756 -0.00946095 19.7857 -0.00712609 22.8956 0.0303139C22.7108 2.41243 22.1755 5.40997 21.9186 7.89973C19.3082 8.22733 16.315 7.80731 13.6192 7.89038C11.885 7.9442 9.73157 7.87634 9.77965 10.9055C9.86311 12.9904 11.3835 12.8991 12.6848 12.898C16.3839 12.8968 19.7735 16.5413 19.8728 20.978C20.0227 27.6645 15.5316 33.1179 9.90513 33.4677L0 33.4584C0.305992 31.2143 0.623582 27.6587 1.05893 25.6112C3.78213 25.4287 6.77068 25.7001 9.51994 25.6159C11.1034 25.5679 13.0439 25.2707 13.0134 22.809C12.9776 19.9004 10.5723 20.8411 9.0388 20.5509C7.6037 20.283 6.27189 19.505 5.2205 18.3209C3.71135 16.6256 3.02106 14.5243 2.99896 12.0848C2.99668 8.98198 4.02419 6.002 5.86133 3.78251C8.05491 1.15235 10.4415 0.061909 13.5656 0.020959Z" fill="#B0B0B0"/>
<path d="M25.1862 0.0321853C28.0548 0.0684553 31.1157 -0.0801312 33.9625 0.0649487C33.9169 1.30983 33.5185 3.83937 33.343 5.172L31.7908 16.3794C31.4726 18.6644 29.8182 32.8881 29.3464 33.4556C28.2541 33.4263 23.7201 33.5 23.0011 33.2566C22.9798 32.2317 23.285 30.3328 23.4329 29.2728C23.7129 27.299 23.9839 25.3241 24.2445 23.3468L25.5292 13.6241C25.7601 11.8691 25.999 9.56651 26.3499 7.87703C25.5986 7.84076 24.8234 7.8513 24.0691 7.84896C24.2148 6.53154 24.7471 0.749395 25.1862 0.0321853Z" fill="#B0B0B0"/>
</svg>
