<svg width="72" height="50" viewBox="0 0 72 50" fill="none" xmlns="http://www.w3.org/2000/svg">
<path opacity="0.2" d="M69.955 19.3984V38.806C69.955 39.4494 69.6995 40.0665 69.2445 40.5215C68.7895 40.9764 68.1725 41.232 67.5291 41.232H60.2512C60.2512 39.3018 59.4845 37.4506 58.1196 36.0858C56.7547 34.7209 54.9036 33.9541 52.9734 33.9541C51.0432 33.9541 49.192 34.7209 47.8271 36.0858C46.4623 37.4506 45.6955 39.3018 45.6955 41.232H26.2879C26.2879 39.3018 25.5211 37.4506 24.1562 36.0858C22.7914 34.7209 20.9402 33.9541 19.01 33.9541C17.0798 33.9541 15.2286 34.7209 13.8638 36.0858C12.4989 37.4506 11.7321 39.3018 11.7321 41.232H4.45427C3.81087 41.232 3.19382 40.9764 2.73887 40.5215C2.28391 40.0665 2.02832 39.4494 2.02832 38.806V26.6763H50.5474V19.3984H69.955Z" fill="black"/>
<path d="M71.5279 18.1488L67.3453 7.73554C66.9905 6.85449 66.3782 6.09986 65.5877 5.56939C64.7972 5.03892 63.865 4.75706 62.9118 4.76033H52.5808V2.38017C52.5808 1.74891 52.329 1.1435 51.8808 0.697135C51.4326 0.250767 50.8247 0 50.1908 0H4.78008C3.51232 0 2.29649 0.501533 1.40005 1.39427C0.503614 2.287 0 3.49781 0 4.76033V38.0826C0 39.3452 0.503614 40.556 1.40005 41.4487C2.29649 42.3414 3.51232 42.843 4.78008 42.843H9.85891C10.3854 44.8909 11.5814 46.7061 13.2583 48.0023C14.9352 49.2986 16.9975 50.0021 19.1203 50.0021C21.2431 50.0021 23.3055 49.2986 24.9823 48.0023C26.6592 46.7061 27.8552 44.8909 28.3817 42.843H43.3194C43.846 44.8909 45.042 46.7061 46.7188 48.0023C48.3957 49.2986 50.4581 50.0021 52.5808 50.0021C54.7036 50.0021 56.766 49.2986 58.4429 48.0023C60.1197 46.7061 61.3157 44.8909 61.8422 42.843H66.9211C68.1888 42.843 69.4047 42.3414 70.3011 41.4487C71.1975 40.556 71.7012 39.3452 71.7012 38.0826V19.0413C71.7023 18.7354 71.6434 18.4322 71.5279 18.1488ZM52.5808 9.52066H62.9118L65.7798 16.6612H52.5808V9.52066ZM4.78008 4.76033H47.8008V23.8017H4.78008V4.76033ZM19.1203 45.2231C18.1749 45.2231 17.2507 44.9439 16.4646 44.4209C15.6786 43.8978 15.0659 43.1543 14.7041 42.2845C14.3423 41.4147 14.2476 40.4575 14.4321 39.5341C14.6165 38.6107 15.0718 37.7625 15.7403 37.0967C16.4088 36.431 17.2605 35.9776 18.1878 35.7939C19.115 35.6103 20.0761 35.7045 20.9496 36.0648C21.823 36.4251 22.5696 37.0353 23.0948 37.8181C23.62 38.6009 23.9004 39.5213 23.9004 40.4628C23.9004 41.7253 23.3968 42.9361 22.5003 43.8289C21.6039 44.7216 20.3881 45.2231 19.1203 45.2231ZM43.3194 38.0826H28.3817C27.8552 36.0347 26.6592 34.2195 24.9823 32.9233C23.3055 31.6271 21.2431 30.9235 19.1203 30.9235C16.9975 30.9235 14.9352 31.6271 13.2583 32.9233C11.5814 34.2195 10.3854 36.0347 9.85891 38.0826H4.78008V28.562H47.8008V32.2245C46.7017 32.857 45.7396 33.7005 44.9703 34.7061C44.201 35.7117 43.6399 36.8594 43.3194 38.0826ZM52.5808 45.2231C51.6354 45.2231 50.7113 44.9439 49.9252 44.4209C49.1391 43.8978 48.5264 43.1543 48.1646 42.2845C47.8028 41.4147 47.7082 40.4575 47.8926 39.5341C48.0771 38.6107 48.5323 37.7625 49.2008 37.0967C49.8693 36.431 50.7211 35.9776 51.6483 35.7939C52.5755 35.6103 53.5367 35.7045 54.4101 36.0648C55.2836 36.4251 56.0301 37.0353 56.5553 37.8181C57.0806 38.6009 57.3609 39.5213 57.3609 40.4628C57.3609 41.7253 56.8573 42.9361 55.9609 43.8289C55.0644 44.7216 53.8486 45.2231 52.5808 45.2231ZM66.9211 38.0826H61.8422C61.3094 36.0397 60.1112 34.2305 58.4352 32.9383C56.7593 31.6462 54.7003 30.9441 52.5808 30.9421V21.4215H66.9211V38.0826Z" fill="black"/>
</svg>
